<svg xmlns="http://www.w3.org/2000/svg" viewBox="0 0 805 605">
  <path d="M359 413a65.1 65.1 0 0 0 7 .2h2a20.1 20.1 0 0 0 4.5.3h6.4a78.3 78.3 0 0 1 6.4 0c2.2 0 4.5.5 6.8 1.3.3 0 .6 0 .8-.2l.8-.4 1.5-.5 1.4-.3c.3 0 .7.1 1.3.4l1.7 1.1a28 28 0 0 1 1.6 1.4l1 1a29.3 29.3 0 0 1 2.3 4c.7 1.3 1.2 2.7 1.8 4 2.5 5.9 5.2 12.2 7.7 18.6 2.5 6.4 4.8 13.2 7.1 19.9a46.5 46.5 0 0 0 1.3 3.2 145.8 145.8 0 0 1 1.7 4 18 18 0 0 1 2.3-2.4 23 23 0 0 0 1.8-2c2.2-2.8 4.8-4.7 7.9-5.7 3-1 6.4-1.5 10-1.4 9.1.3 18 2.8 26.4 7 8.4 4.4 17 9.8 25.3 15.8a74.1 74.1 0 0 1 19.6 20.5 38.8 38.8 0 0 1 5.9 34.1 103.2 103.2 0 0 1-24 36.7 121.7 121.7 0 0 1-12.1 11.6 98.3 98.3 0 0 1-25.2 15.4 67.2 67.2 0 0 1-12.7 3.7c-5.3.9-10.2 1-14.6.1a15 15 0 0 1-10.3-7 12.5 12.5 0 0 0-1-1.3l-2-2.1a69.2 69.2 0 0 1-1 4.6l-1 3.6a10.7 10.7 0 0 0-1.5.6 3 3 0 0 1-1.5.4l-9.4-1.3-9.4-1.7c-1.5-.3-3.2-.4-4.8-.4l-4.9-.2c-1 0-2-.1-2.9-.3-1.3-.3-2.1-.8-2.5-1.5a7 7 0 0 1-.5-3.6 22 22 0 0 1 1.2-6.2c1.7-5.7 3.3-11.9 4.7-18.1a111 111 0 0 0 2.6-19.5 133 133 0 0 0-1.4-25.7c-1.3-8.6-3.4-17.4-5.6-25.8a904.4 904.4 0 0 1-3.5-13.6l-3.5-13.3-5.4-20.6c-1.8-6.7-3.6-13.3-5.5-19.6a168.3 168.3 0 0 0-3-9.3 288.6 288.6 0 0 0-3.6-9.5zm-217 33.7c5 2.6 8.5 7.7 10.9 15.5a137.6 137.6 0 0 1 3 12.2c.8 4.4 1.8 9 3.1 13.9a424.6 424.6 0 0 1-15.5 7.5 390.7 390.7 0 0 1-14.8 6.4l-1.2.6-1.3.5c-1.8.9-3.5 1.5-5.1 2-2.3.5-3.9.2-4.8-1a18 18 0 0 1-2.2-7 74 74 0 0 1-.8-5.4 16 16 0 0 0-1.4-5 11.5 11.5 0 0 0-5-5.9 9.5 9.5 0 0 0-6.6-.8c-2 .4-4 1.4-5.9 2.8a32.1 32.1 0 0 0-5 5 35.8 35.8 0 0 0-4 6c-1.1 2-2 4-2.4 5.8a55.5 55.5 0 0 0-1.2 24.6c1.5 8 4.7 15.7 9.7 23.3 2 3.1 4.2 5.2 6.5 6.4 2.3 1.2 5 1.7 8.1 1.3 4.8-.4 8.2-2.3 10.1-5.2 2-3 2.8-7 2.6-12l.1-1.4.2-2.1 2.6-.6c2.2-.5 4.5-1 6.8-1.7l7-2a230 230 0 0 1 13.7-3.3c4.5-1 9.1-1.4 13.7-1.3a84.2 84.2 0 0 1-.4 12.4c-.4 4-1.2 8-2.2 12a45.7 45.7 0 0 1-1 3.3 14 14 0 0 0-.6 3.3 29.3 29.3 0 0 1-4.4 14.6 43.8 43.8 0 0 1-23 19 43.3 43.3 0 0 1-22.2 1.8c-3-.6-6-1.6-9.3-3a306.6 306.6 0 0 1-9.6-4.2 111 111 0 0 1-9.5-5A89.6 89.6 0 0 1 46 543.2a173.8 173.8 0 0 1-4.3-9.4 64.3 64.3 0 0 1-3-9.2c-.8-2.8-1.2-5.6-1.4-8.3a64.4 64.4 0 0 1-.1-8.2 62.5 62.5 0 0 1 1-8.3 118 118 0 0 1 1.8-8.3A23.8 23.8 0 0 1 51 477a147 147 0 0 0 22-16.8 31.7 31.7 0 0 1 6-4.2 47.8 47.8 0 0 1 6.4-2.9 80.3 80.3 0 0 1 6.4-2 239.3 239.3 0 0 1 6.3-1.8 158.3 158.3 0 0 1 12.7-2.7l12.5-2c7.6-1.2 13.8-.5 18.8 2zm98.6-25.7a86 86 0 0 1 27.3 5.8 134.6 134.6 0 0 1 16.3 7 37 37 0 0 1 3.5 10.3 92 92 0 0 1 1 9.3l.5 16a314.6 314.6 0 0 0 2.1 32.5 287 287 0 0 1 1.4 16c0 1 .2 2 .5 3a8.6 8.6 0 0 1 .2 2.7 16 16 0 0 0 2 9.5c1.6 2.8 4.2 5.4 7.8 7.9 1.7 1 3.3 2 5 2.5a13 13 0 0 0 6.2 1c2-.3 3.5-1 4.9-2 1.3-1.2 2.4-2.6 3.2-4.3a17.9 17.9 0 0 0 1.6-5.6 170.1 170.1 0 0 0 1-20.2 167.1 167.1 0 0 0-4.9-40c-1.4-6.4-3-12.7-4.2-18.8-.5-2.5-.2-4.2.8-5.1 1-1 2.7-1 4.9-.1l15 5.4a202.1 202.1 0 0 0 18.9 5.7l3.8 1.3a361.1 361.1 0 0 0 3.9 10.8 87 87 0 0 1 3.3 10.8 203.5 203.5 0 0 1 5.4 40.8c0 4.3-.1 8.7-.3 13l-1 12.7a388.8 388.8 0 0 0-.8 12.6 135.7 135.7 0 0 0 0 12.5c.1 3-.3 5.8-1.3 8.5a134 134 0 0 0-2.6 8.5 64.8 64.8 0 0 1-11.7-1.8 113.6 113.6 0 0 1-11.3-3.5 224.7 224.7 0 0 1-8.6-3.4c-2.8-1.2-7.7-2.5-8.5-3.7-.5-.6-.3-3.2-.3-4.6a180 180 0 0 0-.3-5.2 31 31 0 0 1-8.8 1.8c-3.3.2-6.7.2-10.3 0a92 92 0 0 1-10.6-1.6 68 68 0 0 1-33-16.7c-4-3.4-7.4-7.1-10-11.4a69.5 69.5 0 0 1-6.2-13.3 72 72 0 0 1-2.7-32.2 98 98 0 0 0 .7-18.5c-.4-6.3-.6-12.7-.6-18.9a63 63 0 0 0-1.2-11.8 735.5 735.5 0 0 1-2.2-11.5 24.2 24.2 0 0 1-.3-6.7l.5-7zm211 76.3a115.4 115.4 0 0 0-8.6 3.3c-2 .9-3 2-3.5 3.4-.4 1.4-.2 3.4.7 6a55 55 0 0 1 2.1 9.3 143.8 143.8 0 0 1-1.1 42.4c-.6 3.4-.3 6 1 8 1.3 1.8 3.4 2.7 6.5 2.6 1 0 2-.3 3-.6a34.1 34.1 0 0 0 9.5-4c3-1.9 5.5-4.5 7.6-8 2-3.1 3.3-6.3 4.2-9.6.8-3.2 1.4-6.5 2-9.8 1-5.2 1-10.3 0-15a57 57 0 0 0-5.3-14.7 18.5 18.5 0 0 0-1.6-2.7 7.3 7.3 0 0 0-2.2-2.1 74.8 74.8 0 0 0-7-4.3 434.8 434.8 0 0 1-7.3-4.2zM225.8 367.8c.6.6.8 1.5.6 2.8a144 144 0 0 0-2.8 23.2l-.5 26.6c0 9.8 0 20-.2 30.4a662 662 0 0 0-.3 31.6c0 4.4.3 8.8.8 13.2.5 4.3 1 8.7 1.2 12.9l1.5 19.8c.5 6.3.8 12.6 1.6 18.1l.2 2.3c0 .8.2 2.2 0 2.5-.1.2-1 .6-1.4.9-.4.3-.9.4-1.3.4a26 26 0 0 0-5.5.3 54 54 0 0 0-16.2 6.2c-3.5 2-7 4.2-10.4 6.3l-1.5.9c-1.4.8-2.5 1.3-3.4 1.6-.9.3-1.6.3-2-.1-.6-.3-1-1-1.2-2l-.9-4.2c-.8-6-1.3-12.4-1.8-19l-1.2-20.2-1.7-27.4c-.6-9.1-1.5-18.4-2.5-27.4-.9-8-1.8-15.9-2.5-23.5s-.5-15.3.6-23a178.3 178.3 0 0 1 10-39.5 49.2 49.2 0 0 1 2-5.3 107 107 0 0 0 4-2.3 22 22 0 0 1 3.9-1.8 118.3 118.3 0 0 1 27.5-5.1c1.6 0 2.8.3 3.4.8zM795 274.3h.3a11.2 11.2 0 0 1 1.9.6l1.8.7a78.7 78.7 0 0 1 1.8 20.5 81.5 81.5 0 0 1-3.3 20.4c-.4 1.3-.8 2.7-1 4a31.6 31.6 0 0 1-1.1 3.9 154.2 154.2 0 0 1-20.9 39.7 280.4 280.4 0 0 1-6.7 9.6l-6.8 9.2c-1 1.5-2.3 3-3.5 4.5a523.5 523.5 0 0 1-4.1 4.9l-4.3 5a185.5 185.5 0 0 0-4.1 5 382.9 382.9 0 0 1-7.2 8.7 928.4 928.4 0 0 1-7.6 8.7 1368.4 1368.4 0 0 1-7.7 8.8 412.3 412.3 0 0 1-20.7 22.4 99.8 99.8 0 0 1-12 10.6 33.7 33.7 0 0 1-2.3 1.6l-2.4 1.4a184 184 0 0 1-6.6 3.2 80.3 80.3 0 0 1-7 2.9 46 46 0 0 1-7 1.9 29 29 0 0 1-6.5.5c-2.4-.2-4-1.3-4.8-3-.8-1.8-1.3-4.3-1.3-7.3a135.6 135.6 0 0 0 6-7.4l6.3-7.8a108 108 0 0 1 7.1-7.9 77 77 0 0 1 8.7-7.5c-.6 2.7-.5 4.3.5 4.9a6 6 0 0 0 3.6.7l6.3-.3a28.3 28.3 0 0 0 8-1.8 25.3 25.3 0 0 0 1.9-1c1.9-1 3.7-2.4 5.6-4a64.4 64.4 0 0 0 5.3-5.3 89.4 89.4 0 0 0 8.9-11.9 61 61 0 0 0 2.3-4.2l2.6-4.8a153.2 153.2 0 0 1-7.7 6.5 153 153 0 0 1-8 6 116.4 116.4 0 0 1-8 5.1 69 69 0 0 1-7.5 3.8 20 20 0 0 1-8.8 2 6.7 6.7 0 0 1-5.7-3.7 67 67 0 0 1-8-34.3c.1-11 2-22.7 5.6-34.5a305 305 0 0 1 21.2-51c2.2-4 4.5-7.3 7.2-10a33 33 0 0 1 9.4-6.8 54 54 0 0 1 13-4 56.8 56.8 0 0 1 11.8-1c4 0 8 .6 12 1.8a44.5 44.5 0 0 0 5.3 1.4l5.4 1 .5-5c.2-1.2.5-2 1-2.7a5 5 0 0 1 2.5-1.6 59.2 59.2 0 0 1 4.7-1.3 85.5 85.5 0 0 1 12.3-1.9c4-.3 8-.3 11.8.1zm-172.3 25 10.9 1.5c2.1.3 4.2.9 6.3 1.8l6 2.6a33.1 33.1 0 0 1 15.4 13 40.4 40.4 0 0 1 4.4 9 59.3 59.3 0 0 1 2.5 10c.8 5.2.9 10.7.4 16a75 75 0 0 1-3.7 16.6 761.5 761.5 0 0 1-7.4 20.8 870 870 0 0 1-7.7 20.2l-2.6 7.4-2.7 8.5a365.6 365.6 0 0 1-2.3 6.9c-.7 1.9-1.2 2.9-1.5 3a65.3 65.3 0 0 0-9.4 1l-5.4.6-5.6.6-4.3.5a53.7 53.7 0 0 1-3 .3c-1.1 0-1.9 0-2.3-.3-.4-.2-.6-.7-.5-1.6l.7-3.6 1.3-6.3A47.7 47.7 0 0 1 595 439c-6 2.2-12 3.1-18.2 2.9a55 55 0 0 1-10.4-1.4 79.1 79.1 0 0 1-10-3 37.8 37.8 0 0 1-10.4-5.7 18 18 0 0 1-6-8.1c-1-3.2-1.4-7-.8-11.6.6-4.5 2-9.9 4.5-16.2a34.1 34.1 0 0 1 10-14.2 68.6 68.6 0 0 1 15.5-9.8 94.6 94.6 0 0 1 17.7-6.3 136 136 0 0 1 35.3-4.2 8.5 8.5 0 0 0 1.5-.3l1.4-.4c2-3.7 3.2-7.2 3.4-10.5.2-3.2-.3-6-1.5-8.4a11.7 11.7 0 0 0-12.6-6.3c-2.2.4-4.5 1.3-7 2.8a127.2 127.2 0 0 1-3.8 2.3 21.6 21.6 0 0 0-3.6 2.6 11.2 11.2 0 0 0-4 8.2 2.7 2.7 0 0 1-.7 1.8c-.5.5-1 .9-1.7 1a305.2 305.2 0 0 0-13.1 2.8c-4.3 1-8.5 1.8-12.7 2.2a60.5 60.5 0 0 1-6.1.3c-2 0-4-.2-6-.5-1 0-1.5-.6-1.6-1.4-.4-2-.4-4 .2-5.9.5-2 1.2-4 2.2-6 3.5-6.6 7.4-13 11.7-18.8a65 65 0 0 1 16.2-15.4l4-2.4a37.2 37.2 0 0 1 4-2.2 227.4 227.4 0 0 1 16.4-6.4l1.6-.5a18.4 18.4 0 0 1 1.6-.4 31 31 0 0 1 10.8-.4zM517.4 282a17.4 17.4 0 0 1 5.9 9.8c.6 2.8 1.6 5.7 2.8 8.7 1.1 3 2.1 6.1 2.7 9.4a150.2 150.2 0 0 1-.3 54.6c-2.9 16.5-5.3 24.4-9.5 39.6-1 3.6-2 7.1-2.8 10.5-1 3.5-2 6.9-2.8 10.2-.5 2.1-1.4 3.7-2.6 4.5-1.3.8-3.2.9-5.8.4l-5.7-1.2-5.7-1.3c-6.7-1.8-10-2.6-16.6-4.7a139.3 139.3 0 0 1-.5-4l-.6-4-10.4 1.3-10 1.4a28.2 28.2 0 0 1-16.6-3c-2.6-1.4-5.3-2.8-7.8-4.3a69.8 69.8 0 0 1-7.1-4.8 49.6 49.6 0 0 1-6.2-5.6 31.7 31.7 0 0 1-4.8-6.8 144.4 144.4 0 0 1-5.8-12.4 39.6 39.6 0 0 1-3-12.5c-.3-5.5.1-10.8 1.5-15.8a216.4 216.4 0 0 1 6.3-20 22 22 0 0 1 4-9.2 25 25 0 0 1 7.4-6.5c3-1.7 6.4-3 10.1-4A55 55 0 0 1 450 311a56.6 56.6 0 0 1 13.7 3.6 102.8 102.8 0 0 1 8.2 3.3 90 90 0 0 1 7.5 3.8 37.2 37.2 0 0 1 9.4 7.1 122.9 122.9 0 0 0-1-13.4 116.2 116.2 0 0 0-2.2-15.3c-1-4.7-2.3-9.2-4-12.8-.5-1-.4-1.5.2-2 .6-.3 1.7-.4 3.4-.5a163.2 163.2 0 0 0 7.8-.3l7.9-.7 16.4-1.7zm96.4 104-5.5.4a91.1 91.1 0 0 0-8.4 1 44.2 44.2 0 0 0-8.5 2.5 32.1 32.1 0 0 0-7.4 4.1c-2.3 1.8-4 4-5.3 6.4a18.6 18.6 0 0 0-2.3 7.6c0 2 .4 3.4 1.4 4.4a7 7 0 0 0 3.7 2c1.6.4 3.3.6 5 .6a37.4 37.4 0 0 0 5.2-.5l3.3-.5c3.8-.6 7.1-1.9 10-3.9 3-2 5.3-4.8 6.9-8.5a162.4 162.4 0 0 0 3.1-7.8l3-7.8a46.3 46.3 0 0 0-4.2 0zm-149.3-43.4a12 12 0 0 0-4.7 1.8 15.2 15.2 0 0 0-3.6 3.4 57.5 57.5 0 0 0-2.9 4 29.7 29.7 0 0 0-3.6 8.3 36.4 36.4 0 0 0-1.2 8.7c0 3 .2 6 .7 9a93.2 93.2 0 0 0 2 9.2c.4 2 1.3 3.4 2.5 4.3 1.2.9 3 1.8 5.1 2.4a825.3 825.3 0 0 0 11.6 2.3c1.4-1.7 2.7-3.3 4.1-4.6 1.4-1.3 2.3-2.8 2.9-4.3 1.3-3.6 2.6-7.5 3.6-11.4 1-3.8 1.8-8 2.6-11.8.3-1.3.5-2.8.6-4.3a9.2 9.2 0 0 0-.9-4.3l-1.4-3.3a17.7 17.7 0 0 0-1.9-3.3 13.7 13.7 0 0 0-6.9-5 8.1 8.1 0 0 0-1-.4l-1-.2a16 16 0 0 0-6.6-.5zM169.6 234c2.7.8 5.3 2 8 3.7 1.8 1 3.3 2.5 4.6 4.5a35.3 35.3 0 0 1 3 6 115 115 0 0 1 3.6 10l2.9 10.4c.3 1.2.4 2.6.2 4a479.6 479.6 0 0 0-4.4 58.2 284 284 0 0 0 1.2 26.2c.2 1.8-.1 3-1 4s-2 1.5-3.6 1.7a71.7 71.7 0 0 1-7.6 1.2l-8.4 1.1a158 158 0 0 1-13.3 1.3c-1 0-2-.2-2.7-.6a5.1 5.1 0 0 1-1.8-2.3l-1.8-4.6a95.1 95.1 0 0 1-5.9-31 279.2 279.2 0 0 1 2-39.3c.3-3 .4-6 .2-9-.3-3-1.2-5.7-2.7-7.7-1.6-2.1-5-2.3-8.4-2.4h-.3a6.5 6.5 0 0 0-1 .1c-.8.2-1.8.5-2.8 1a39 39 0 0 0-3 1.8 34 34 0 0 0-2.7 1.9 39.2 39.2 0 0 0-5.9 5.6 13.2 13.2 0 0 0-2 4.2 21.4 21.4 0 0 0-.8 4.8c0 1.8-.3 4-.5 6.6l-.7 8.8-.7 9.3a177.5 177.5 0 0 0-.3 9.1 273.9 273.9 0 0 0 3 43.1c.5 2.8.7 4.8.4 5.8-.3 1-1.5 1.8-3.5 2.2l-1.2.3-1.5.1a115.4 115.4 0 0 0-11.7 2.1 155.7 155.7 0 0 0-7.2 1.9 406.6 406.6 0 0 0-7.2 2 8 8 0 0 1-1.4.5c-1.8.5-3.2.4-4.1-.3-1-.7-1.7-2.2-2.3-4.4a118.3 118.3 0 0 1-2.7-15.5 299.6 299.6 0 0 1-1.3-40.2c.2-8 .4-16 .2-23.6 0-1.1-.2-2.1-.5-3-.4-.9-.6-1.8-.7-2.9-.2-2.5-1-4.3-2.4-5.3-1.5-1-3.4-1-5.8-.2-1.2.4-2.5 1-4 1.9a50.7 50.7 0 0 0-11.8 11.2 26 26 0 0 0-4.4 9.7c-1.6 6.7-2.6 13.3-3 19.7a138.5 138.5 0 0 0 0 19.2 153.8 153.8 0 0 0 2.8 23.3 57.7 57.7 0 0 0 1.8 6l2.2 5.8c.8 2 1 3.8.5 5.4-.5 1.6-1.7 2.5-3.6 2.7h-6a517.7 517.7 0 0 1-5 0l-8.2-.4a86.6 86.6 0 0 1-7.7-.8l-1-.1a26.3 26.3 0 0 1-3.4-1 5.9 5.9 0 0 1-1.7-1.2 9.7 9.7 0 0 1-1.4-2 48.7 48.7 0 0 1-1.7-3A50.3 50.3 0 0 1 2.1 366c-.8-5.2-1.4-10.6-1.8-16-.6-8.9-.3-17.9.9-26.7a187.8 187.8 0 0 1 5.3-26.4l2.3-7.6a132.9 132.9 0 0 1 2.4-7.5l1.4-3.3a7.6 7.6 0 0 1 3.6-3.5 178.1 178.1 0 0 1 12.3-4.6l9.2-3c.4 0 .5 0 .9-.2l4.8-1.5 5-1.5c.2.2-1 4-1.5 5.8a119 119 0 0 0-1.4 6.3c4.2-4.6 8.3-8.7 12.3-12.4a54.6 54.6 0 0 1 13-8.8l7.5-3.7a61 61 0 0 1 13-4.4c1.7-.2 3.4 0 4.9.4a26 26 0 0 1 9 4.2c2.8 2 5.7 4 8.9 5.9l5-6a89.8 89.8 0 0 1 5.6-6.2 50.4 50.4 0 0 1 26.4-11.4 89.2 89.2 0 0 1 4.8-.4 142 142 0 0 0 4.6-.3 25 25 0 0 1 9.1.8zM352 253.6l7.6 2.2 7.7 2.4a346.4 346.4 0 0 1 15.8 5.3 12.8 12.8 0 0 1 2.5 8.3c-.2 2 .1 4.4.8 7 .6 2.6 1 5 1.2 7.8.4 7 .7 14.7.4 22.4-.3 7.7-1 15.4-2 23.2-2 14-3.4 20.7-5 33.6a205.6 205.6 0 0 0-.8 9c-.2 2.8-.5 5.7-.5 8.5 0 1.8-.6 3-1.6 3.4-1 .5-2.7.3-5.3-.4a582.5 582.5 0 0 1-5.7-1.9 592 592 0 0 0-22.5-7 90.9 90.9 0 0 1-1.5-3.5l-1.5-3.8a203.6 203.6 0 0 0-18.3 3.1 23 23 0 0 1-6 .7 31.6 31.6 0 0 1-10.1-1.8 158 158 0 0 1-8.4-3 74 74 0 0 1-7.9-3.6 45.5 45.5 0 0 1-7.1-4.6 31.3 31.3 0 0 1-6-6.3 108.3 108.3 0 0 1-7.7-12.4 41.6 41.6 0 0 1-4.4-13.3c-.9-6.1-.8-12 .3-17.7a153.5 153.5 0 0 1 6-22.2 22.6 22.6 0 0 1 12-16.2c2.9-1.6 6.2-2.6 10-3.2a50.4 50.4 0 0 1 16.3.5 57.7 57.7 0 0 1 5.5 1.7c2.4 1 5 2 7.6 3.3a104.6 104.6 0 0 1 7.7 4 99.6 99.6 0 0 1 7 4.4 39.9 39.9 0 0 1 6.6 5.7 77.6 77.6 0 0 0 2 2.2c.2-2.4.2-4.6.2-6.5l.1-5.5.4-13.6v-11.4c0-.8.3-1.3 1-1.4.8 0 2 .1 3.6.6zm397 62a28 28 0 0 0-16 12.1 99.5 99.5 0 0 0-16.6 37.8 113.2 113.2 0 0 0-1.7 11.4c-.4 4.2.5 7 2.5 8.2 2 1.3 4.9 1.2 8.6-.4 2.3-1 5-2.5 8.2-4.8a62.2 62.2 0 0 1 3.7-2.5 102 102 0 0 0 4-2.7 205.1 205.1 0 0 0 17.4-51.2c.1-.7 0-1.2-.3-1.5l-1.7-2.5c-.6-.9-1.3-1.7-2-2.3a7 7 0 0 0-2.6-1.5c-1-.3-2.2-.4-3.6 0zm-531-77.8c.3 0 .4.1.5.2a28.3 28.3 0 0 0 4.8 2 66.6 66.6 0 0 0 5 1.4c3 .7 6.2 1.3 9.2 1.8 3 .5 6.1 1.3 9.2 2.3a38.7 38.7 0 0 1 4.1 1.7 26.4 26.4 0 0 1 4 2.2 4 4 0 0 1 1.3 1.6c.2.6.3 1 .2 1.6a10.6 10.6 0 0 1-.3 1.5 5.8 5.8 0 0 0-.3 1.6c.3 5 .1 10-.3 14.6a144 144 0 0 1-2.1 14c-1 4.7-2 9.4-3.2 14-1.2 4.5-2.3 9.1-3.2 13.7-1.3 6.3-2.2 12.6-2.5 18.9a53.3 53.3 0 0 0 2.4 18.8c.3 1 .4 1.9.5 2.8l.2 2.6a34 34 0 0 1-8.5 3c-2.9.6-6 .9-9.1.9a71 71 0 0 1-7.5-.3c-2.6-.3-5.3-.5-7.8-1a20 20 0 0 1-3.7-1l-2.7-.8a114.8 114.8 0 0 1-1.7-8l-1-7.2c-.1-.6-.3-1.1-.3-1.7a7 7 0 0 1 0-1.8c0-7.2.5-14.4 1.3-21.7.9-7.2 1.8-14.6 2.9-22l2.9-22.5 2.6-22.2.3-2.8a41.4 41.4 0 0 1 1.2-7c.4-1 1-1.3 1.6-1.2zm104.6 64a11 11 0 0 0-4.6 1.4 13 13 0 0 0-3.5 3.1 41.8 41.8 0 0 0-2.7 3.9 25 25 0 0 0-3 8c-.6 2.8-.7 5.7-.5 8.6.2 3 .8 6 1.6 8.9a78.6 78.6 0 0 0 3.1 8.9 8.2 8.2 0 0 0 3.1 4c1.3.8 3.1 1.6 5.3 2.1a4136 4136 0 0 0 11.4 2c1-1.5 2-3 3.2-4.1a8.5 8.5 0 0 0 2-4c.9-3.4 1.6-7 2.2-10.5l1.6-11c.2-1.1.3-2.5.3-4 0-1.3-.3-2.7-1-4l-1.5-3.2a20.5 20.5 0 0 0-1.9-3.3 15.5 15.5 0 0 0-2.7-2.8c-1.1-1-2.5-1.7-4-2.4a8.2 8.2 0 0 0-1-.4 67.4 67.4 0 0 1-1.1-.4c-2.5-.8-4.6-1-6.3-.9zM476.9 72.4a39.1 39.1 0 0 1 24 20.7 85.9 85.9 0 0 1 7 17.6 61.3 61.3 0 0 1 1.4 7.3c.3 2.4.6 4.9.7 7.4l-1.8 1.3c-.6.6-1.3.9-1.9 1a386 386 0 0 1-12.9 2.4 185.3 185.3 0 0 1-15.3 2c-1.4 0-2.5-.3-3.4-1.1-1-.8-1.3-2.8-1.4-6 0-1-.2-1.9-.7-2.6a19.8 19.8 0 0 1-1.4-2.3c-.8-1.2-1.7-2.1-2.8-2.7s-2.2-.9-3.2-.8c-1 0-1.7.4-2.4 1.1a18.8 18.8 0 0 0-3.2 6c-1 2.8-1.8 5.2-2 7.3-.5 6.3.7 9.6 4.3 10.3l7.8 1.5c2.6.5 5.3.9 8 1.2 4.4.5 7.7 2.6 10 6.1a47 47 0 0 1 6 13.7 74.6 74.6 0 0 1 .5 39.4 191.3 191.3 0 0 1-1.8 7.3 253.7 253.7 0 0 1-3.6 12.2 40 40 0 0 1-4 7.6 59 59 0 0 1-4.6 6c-4 4.8-7.8 8-11.8 9.7a24 24 0 0 1-12 1.8 34 34 0 0 1-7.5-1.8 64.5 64.5 0 0 1-7.5-3.2 46 46 0 0 1-16.4-14.2 74.3 74.3 0 0 1-11.3-23.7 81.5 81.5 0 0 1-1.6-6.6l-1-6.6c-.3-3.2 0-5.6 1-7.3a5 5 0 0 1 4.8-2.3l6.2.2 6.2.2c3.2 0 6 1.3 8.3 3.3 2.4 2.1 4.2 5.6 5.8 10.4 1 2.9 2.2 5.1 3.8 6.7a7.7 7.7 0 0 0 5 2.6c2.2.1 4.1-.6 5.8-2.2 1.7-1.6 3-4.4 3.8-8.4.5-2.3.6-4.4.2-6.3a6.5 6.5 0 0 0-2.2-4 83.5 83.5 0 0 0-5-3.7 40 40 0 0 0-5.1-2.9 137 137 0 0 1-11.6-6.2 34.5 34.5 0 0 1-9.9-8.8 27.6 27.6 0 0 1-5.3-12.8c-.7-5 .2-11.2 1.7-19.3 1.7-10.1 2.3-19.7 4.6-27.2a50 50 0 0 1 11-19.3 58 58 0 0 1 10-8.8 26 26 0 0 1 10.9-4.4l1-.2h.9a38 38 0 0 1 14 1.4zM571.2 0c4 0 8.2.8 12.6 2.2a91.7 91.7 0 0 1 3.6 8.7 93 93 0 0 1 2.8 9c1 4.5 2.4 9 4 13.5s3 9 4.2 13.8c3.1 11.9 6 24.2 8.5 36.8a65 65 0 0 1-3.9 36.8 292.2 292.2 0 0 0-18.2 66.2 1178.4 1178.4 0 0 0-2.3 15.3c-.5 3.3-1 5.9-2 7.8a9.5 9.5 0 0 1-3.9 4.3 77.5 77.5 0 0 1-3.9 2.1l-3.9 2a452 452 0 0 1-11.6 5.5 317.7 317.7 0 0 1-.6-12 510 510 0 0 0-7.5 10.7 349.1 349.1 0 0 0-7.3 11.2 34.9 34.9 0 0 1-4.9 6.3 14.1 14.1 0 0 1-5 3.4 8 8 0 0 1-2.4.4c-2 0-3.9 0-5.7-.6-1.8-.4-3.6-1.3-5.2-2.5-1.7-1.3-3.2-3-4.5-5.4a34.2 34.2 0 0 1-3.5-8.9c-1.5-6-3-12.3-4-18.5a123.6 123.6 0 0 1 2-47.5c2-8.7 5.3-17.1 8.5-26a161.5 161.5 0 0 0 2.7-8.5c1.4-6.1 2.6-12.4 3.5-18.3 1-6 2-11.2 3.4-16s3.4-9 5.6-12.7c2.3-3.7 4.7-6.8 7.5-9.3.9-1 2-1.7 3.3-2.2a16 16 0 0 1 4.1-1c2-.2 4 0 6.2.2 2.1.4 4.3 1 6.4 1.8a36.6 36.6 0 0 1 6.2 3 24.7 24.7 0 0 1 5 4.4l1.2 1.2 2.2 2.5a620.6 620.6 0 0 0-2.4-11.3 621.4 621.4 0 0 1-2-9.8c-2-9-4-17.8-6-26a772.8 772.8 0 0 0-6.3-24.8c-.6-2-.8-3.6-.4-4.6.3-1 1.1-1.7 2.3-1.9l5.7-1a44.5 44.5 0 0 1 5.8-.2zM391.7 96.3c3.4.5 6.6 1.9 9.6 4 3 2.3 5.8 5.4 8.2 9.4a30.7 30.7 0 0 1 4.5 15c.3 11-2.9 20.8-5.2 30.7-2.4 10-4.2 20.5-5.8 31.3-1 7-1.6 14-1.7 21.1v21.5l.1 6.7c-1.5-1.2-3-2-4.5-2.7a22.2 22.2 0 0 0-4.4-1.3 34.8 34.8 0 0 0-7.4-.5 31.6 31.6 0 0 1-7.2-.6 18.7 18.7 0 0 1-2.5-.7c-.8-.3-2.2-.6-2.4-.9-.5-.6-.4-3-.6-4.4a43 43 0 0 1-.4-4.2 260 260 0 0 1 .8-32.7 76.4 76.4 0 0 1 1-7l1.1-6.8c.6-4.3 1.2-8.6 2-12.8.7-4.1 1.6-8.2 2.5-12.2.4-2 .6-3.9.6-5.8a40.3 40.3 0 0 0-.3-5.6 9 9 0 0 0-2.1-5.4 4.4 4.4 0 0 0-3.9-1.3c-2.6.4-5.2 2.7-8.1 6.5a48 48 0 0 0-8.9 17.6c-1.5 6.2-2.8 12.6-4.1 19a220 220 0 0 0-3 19.8c-.4 3.9-.6 7.7-.4 11.6a148.1 148.1 0 0 0 .8 14.5 8 8 0 0 0 .7 3.2 6.2 6.2 0 0 1-1.3.2c-.3 0-.6 0-1-.2-.3 0-.5 0-.9-.2a11.3 11.3 0 0 1-.8-.1c-3.2-.4-6.5-.9-9.7-1.7a66.8 66.8 0 0 1-9.9-3.1s-.3 0-.5-.2c-2-.8-3.3-1.9-4-3a17 17 0 0 1-1.6-6.2 154.8 154.8 0 0 1-1-15.4c-.1-8.6.2-17.2 1.3-25.5 1.1-8.2 3.2-16.1 5.6-24.3 1.4-4.5 2.6-9.3 3-14.4.6-5.1.2-10.3 0-15.3a58.9 58.9 0 0 1 .2-5.8l.4-6.1a30 30 0 0 0 14.2 2.3l7-.7c2.4-.2 4.7-.2 7 .2a173.6 173.6 0 0 0-.4 5.4c0 1.7-.2 3.7-.4 6l2.3-2a6.9 6.9 0 0 0 1.4-1.7 35.8 35.8 0 0 1 8.8-9.3c3.6-2.6 7.3-4.4 11.3-5.4a25 25 0 0 1 10-.5zm-166 98.7a54.1 54.1 0 0 1 13 3 83.6 83.6 0 0 1 4.7 1.7l5 2.2a147 147 0 0 1 4.7 2.4 17 17 0 0 1 5.4 4.1c1 1.4 1.5 3.1 1.5 5.4l-.3 6.2-.5 6.6a4.4 4.4 0 0 1-.7 2 15 15 0 0 0-1 2l-1.1 2.3-1.5 3a61.9 61.9 0 0 0-3.3-1.7 64 64 0 0 0-3.3-1.4 58.2 58.2 0 0 0-10.8-3c-3.6-.6-7.6-1-11.1-1.5-1.8-.4-3.3-1-4.1-1.8-1-.8-1.5-2-1.7-3.7l-.9-9.5c-.2-3.2.3-6.3 1.5-9.3.4-1 .6-2 .6-3.2 0-1 0-2.2.2-3.2 0-1.8 1.4-2.8 3.7-2.6zm520-131.8c3 .7 5.9 1.8 8.9 3.2a72 72 0 0 1 9.4 5.4 82.1 82.1 0 0 0 4.3 3c1.5.8 3 1.7 4.4 2.7L772 74c-.1-.7-.1-1.2.1-1.5.2-.3.7-.3 1.4-.2l3.2.7a142.8 142.8 0 0 1 16.1 5.4l.3.1 1.3.7 1.4.8c3.3 5 6.4 10 8.5 15.6 2 5.5.2 11.3-4.1 15l-2.6 2.2a35.1 35.1 0 0 1-2.6 2c-5 3.6-9.3 7.4-13 12-3.6 4.5-6.8 9.5-9.8 14.7a658.2 658.2 0 0 0-4.4 8.1l-4.3 8.1a39.1 39.1 0 0 1-2.4 3.8 54 54 0 0 1-2.9 3.8 140.7 140.7 0 0 1-3.2 3.7 506 506 0 0 0-3.1 3.7 56 56 0 0 1-6 6 75 75 0 0 1-6.6 5 90 90 0 0 1-7.2 4.5 140.7 140.7 0 0 1-7.6 3.9 158 158 0 0 1-13.2 5.3 64.7 64.7 0 0 1-16.1 3.2l-5.6.1-5.7.2a119.6 119.6 0 0 1-10-.4c-1.6-.3-2.5-1-2.7-2.3-.2-1.3 0-3 .5-5.4 1.8-1.8 3.7-3.7 5.4-5.7a576.1 576.1 0 0 1 5.5-6.1 78.3 78.3 0 0 1 6-6 44 44 0 0 1 7.3-5c-.6 2.3-.6 3.8.1 4.6.8.8 1.7 1.4 2.9 1.8 1.6.5 3.3 1.2 4.9 1.9a27.4 27.4 0 0 0 5.1 1.5 9 9 0 0 0 1.6.3 17.6 17.6 0 0 0 1.5 0c1.7-.1 3.3-.5 5-1.2a23 23 0 0 0 4.6-2.6 29.4 29.4 0 0 0 4.1-3.6 16 16 0 0 0 3.3-4.2 29.5 29.5 0 0 0 1.9-3.3 183 183 0 0 1 1.9-4 54.9 54.9 0 0 1-6.4 2.8 73.7 73.7 0 0 1-6.7 2 80 80 0 0 1-12.8 2.2c-2.7.2-5-.2-7-1a8 8 0 0 1-4.3-5c-1.6-4.5-3-9.5-3.8-14.6-.8-5.1-.7-11 .5-17.1a48.3 48.3 0 0 1 13.2-25.2c7.3-7.4 16.2-16.2 19-25.5 1.1-4 1.8-7.2 2.7-9.8.9-2.5 2.1-4.4 3.7-5.8a10 10 0 0 1 5.9-2.2 28 28 0 0 1 9 1zM188.2 38a50.4 50.4 0 0 1 10.5 1l6 1.2c2.7.6 5.2 1.6 7.5 3.1a35.2 35.2 0 0 1 6.4 5.7 69.4 69.4 0 0 1 5 6.2 274.1 274.1 0 0 1 4.8 7 38.5 38.5 0 0 1 4.8 9.5c1.1 3.4 2 7 2.2 10.6.4 4.4.5 8.5.6 12.6a72 72 0 0 1-.1 8.5c.2-1 .4-2 .8-3.1.7-2.4 1.6-4.7 2.6-7l2.9-7c1.1-3 2.3-5.6 3.6-7.8 1.3-2.2 3-3.8 5.1-4.9l6-2.8a50.7 50.7 0 0 1 6.3-2.3c2.5-.8 5.2-.6 8 .4 2.9 1 5.7 2.4 8.5 3.6l2.1 1 2.2 1.2a85.4 85.4 0 0 1 9.7 5.9c3.1 2.2 6.3 5.2 9.4 9 3.1 3.9 5.9 8 8.2 12.4a55.3 55.3 0 0 1 5.5 38.5c-1.4 7.5-3 14.7-4.6 22a1.8 1.8 0 0 1-.2.6l-.7.9a213.1 213.1 0 0 1-12.4-5.7 129 129 0 0 0-12.5-5.5 46.2 46.2 0 0 1-2.8-1.2 49.5 49.5 0 0 1-2.8-1.5 109.4 109.4 0 0 1-5.3-3.3 123.4 123.4 0 0 0-5.3-3.3 57 57 0 0 0-4.3-2.3 25.8 25.8 0 0 0-4.3-1.6 55 55 0 0 0 7.4 14.5 59.5 59.5 0 0 0 4.6 5.5c1.6 1.8 3.2 3.4 4.9 5a19 19 0 0 0 3.7 2.9c1.4.8 2.8 1.3 4 1.5 1.3.2 2.6.2 3.9 0a31.6 31.6 0 0 0 3.8-.7c1.3-.3 2.6-.5 4-.6a589 589 0 0 0 4.9 10.8 419 419 0 0 0 5.1 10.7l-.5 2.3c-.1.7-.3 1.1-.6 1.4a64.5 64.5 0 0 0-5.4 4.7 11.7 11.7 0 0 1-5.5 3c-2.5.7-5.2.5-8.1-.6-3-1-6-2.3-9-4.1-1.6-1-3.4-2.6-5.4-4.3a103.6 103.6 0 0 1-5.8-5.7 222.5 222.5 0 0 1-5.8-6.4 200 200 0 0 1-5.3-6.4A96.1 96.1 0 0 1 247 159a102.5 102.5 0 0 1-10.9-28.8 35 35 0 0 1-.7-12.4 5 5 0 0 0 0-2 41.8 41.8 0 0 1-.3-5 94.8 94.8 0 0 1-7.3 27.6 6.8 6.8 0 0 1-1 1.6l-1.3 1.3c-2 1.5-3.9 3-6 4.2a44.2 44.2 0 0 1-24.8 5.4h-2.1l-2.1-.3-2.1.2h-2c-3.4 0-6.8-.6-10.3-1.8-3.4-1.2-7-2.7-10.5-4.4a47.5 47.5 0 0 1-10.9-7.4 68.4 68.4 0 0 1-16.2-21.5 74.8 74.8 0 0 1-4.4-11.5c-.7-2.4-1-5-1-7.7a64.9 64.9 0 0 1 8.6-27.3A82.4 82.4 0 0 1 154 52.5a33.4 33.4 0 0 1 8.2-6 35.5 35.5 0 0 1 11-3.8 2.9 2.9 0 0 0 1.3-.6 15.5 15.5 0 0 1 4.1-2.3 24.7 24.7 0 0 1 4.6-1.3 28.8 28.8 0 0 1 4.9-.4zm481.3 13.5a759 759 0 0 0 8.4 3.1 23.9 23.9 0 0 1 5 2.5l5 3.2a44.3 44.3 0 0 1 7.5 6c2.3 2.4 4.5 4.8 6.3 7.5 2 2.6 3.6 5.5 4.5 8.6 1 3.2 1.1 6.4.6 9.2-.8 4.3-3 8-5.6 11.6l-8.6 11.2c-3.7 5-6.9 10.5-9.7 16.1a227.4 227.4 0 0 0-12.6 32.1 290.3 290.3 0 0 1-2.1 6.4c-.6 1.8-1 2.7-1.3 2.8a25.2 25.2 0 0 0-3.3.8l-3.3 1.1-3.7 1.4-4 1.5c-1 .5-2 1-3 1.3l-2 1c-.7.3-1.2.4-1.5.3-.2-.2-.3-.6-.2-1.4l.8-3.6 1.4-6.3a83.8 83.8 0 0 1-12.4 15.3 57 57 0 0 1-12.2 9 31.5 31.5 0 0 1-13 3.8c-2.7 0-4.8-.6-6.5-2-1.7-1.3-2.8-3.7-3.4-7.2-.7-3.4-.7-8 0-13.7.7-5.7 2.2-12.8 4.8-20.9a54 54 0 0 1 9.7-18.1c4-5 8.6-9 13.3-12.3a74.4 74.4 0 0 1 34.5-12.8l4.7-.5 1-.3 1.2-.4a34 34 0 0 0 6.4-8.1 12 12 0 0 0 1.4-7.3 9 9 0 0 0-3-5.3 6.7 6.7 0 0 0-5.3-1.7c-1.6.3-3.3 1-5 2.6a78.6 78.6 0 0 1-2.9 2.2 21.4 21.4 0 0 0-2.8 2.6 18 18 0 0 0-2.4 3.5 27.5 27.5 0 0 0-2.1 4.6c-.2.6-.6 1.2-1 1.7-.6.5-1 .9-1.6 1-3.3 1-6.5 2-9.7 3.2a78 78 0 0 1-13.6 3.6c-1.4.2-2.7.2-4 0-.5 0-.7-.5-.5-1.4a50 50 0 0 1 1.6-6.7 218.7 218.7 0 0 0 2.2-7.5c2.5-8.7 3.3-16 5.3-22.4a32 32 0 0 1 9.4-15 91.9 91.9 0 0 1 2.6-1.9 14.5 14.5 0 0 1 2.8-1.5 75 75 0 0 1 11.5-3.7l1.1-.2h1.2c2.6-.2 5.3.3 8 1.4zm-103.6 59.3-.8.1a8.7 8.7 0 0 0-4.9 2.7 30.3 30.3 0 0 0-4 5.4c-1.4 2.1-2.6 4.5-3.9 7l-3.8 7.3a93.9 93.9 0 0 0-5.7 13.7 78.5 78.5 0 0 0-3 13.4 98.5 98.5 0 0 0-.8 13.3c0 4.5.3 8.8.7 13.1.2 2.7.8 4.4 1.7 5 .8.5 2.2.6 3.6 0a24 24 0 0 0 4.2-2.2l4.2-2.5a140.2 140.2 0 0 1 3.3-9.6 56.3 56.3 0 0 0 2.5-8.1 433.1 433.1 0 0 1 4.6-18.1 188.9 188.9 0 0 1 7.5-23c.6-2 .9-3.8.8-5.3 0-1.3 0-2.6-.2-4a18.3 18.3 0 0 0-.6-3.9c-.4-1.2-1-2.2-1.7-3a4.4 4.4 0 0 0-3-1.3 2 2 0 0 0-.7 0zm91 17.8c-.7 0-1.6.2-2.7.4a61.3 61.3 0 0 0-9.6 3 32.4 32.4 0 0 0-6.2 3.6c-2 1.5-4 3.2-5.7 5.4a27.5 27.5 0 0 0-4.5 7.5 31.9 31.9 0 0 0-2.5 8.4c-.2 2 0 3.4.5 4.2s1.3 1.2 2.3 1c1 0 2.1-.2 3.2-.7a27.4 27.4 0 0 0 3.5-1.8 78.3 78.3 0 0 1 2.3-1.3c2.6-1.4 5-3.4 7.1-5.8 2.2-2.5 4-5.6 5.6-9.3a656.1 656.1 0 0 1 3.3-7.4 175.8 175.8 0 0 1 3.5-7.2zm-519-83.9c.2.6.3 1.6 0 3a45.8 45.8 0 0 1-.8 4.9 193 193 0 0 1-1.2 4.8c-1.5 5.3-3 10.8-4.7 16-1.7 5.3-3.6 10.5-5.2 15.7l-1.4 4.7a77.3 77.3 0 0 1-1.5 4.8 71.2 71.2 0 0 0-4 20.7 95.6 95.6 0 0 0 1.5 21c.4 2.2.7 4.3.8 6.4.2 2.1.5 4.3 1 6.5a21.6 21.6 0 0 0-10.6-2.4 23 23 0 0 0-4 .5 23.6 23.6 0 0 1-4.2.6 23 23 0 0 1-11-2.2A172 172 0 0 1 68 99.6a136 136 0 0 0-3.3 14.3 206.7 206.7 0 0 0-2 14 113.1 113.1 0 0 0-.3 26.6l-1.9.3-2 .1a67 67 0 0 1-5.8 0 72.2 72.2 0 0 1-6-.4 80.8 80.8 0 0 1-5.3-.8c-1.7-.4-3.5-.6-4.1-1a11 11 0 0 1-1.9-3 14.8 14.8 0 0 0-1.7-2.5 45.5 45.5 0 0 1-7.4-11 137 137 0 0 1-4.6-11.3 558.3 558.3 0 0 1-2.9-8.1l-2.4-8A129.6 129.6 0 0 1 13.6 96a111 111 0 0 1-1.5-20.9c0-2.7.4-5.4.9-8a42.4 42.4 0 0 1 3.4-2.1 40.2 40.2 0 0 1 3.3-1.7A37 37 0 0 1 28 61l9-1.5c.6 1 1.1 2 1.4 3.2a75.4 75.4 0 0 1 .5 8.2 82.9 82.9 0 0 0 0 4.5c.3 5.2.6 10.6 1.2 16a89.2 89.2 0 0 0 3.2 16 145 145 0 0 1 2.5-11 186.2 186.2 0 0 1 3.4-10.9A270 270 0 0 1 59.3 60a9 9 0 0 1 3.1-3.9 13 13 0 0 1 4.2-1.7 133.7 133.7 0 0 0 6.6-1.8l6.5-1.6a4.6 4.6 0 0 1 4.3 1.3c.5.6.8 1.3 1 2.1l.6 2.6c.8 5.4 2 11 3.1 16.6C90 79 91 84.7 92.4 90.3l.5 2.4 1 3.4c1.7-8.4 4.2-16.3 6.5-24.3 2.2-7.9 4.3-15.6 7-23a374 374 0 0 1 11.2-1.8l10.6-1.7a28.2 28.2 0 0 0 2.4-.4l2.2-.6 1.1-.2h1c.9-.2 1.5 0 1.8.6zM753 98.5c-3.5 2-7.1 4.1-10.4 6.3a50 50 0 0 0-8.6 6.7 33.2 33.2 0 0 0-5.7 8 41.1 41.1 0 0 0-3.3 8.9c-.9 3.5-.5 6.3 1 8.4 1.4 2 3.6 3 6.6 3.2 1.9.1 4-.2 6.7-1a29.2 29.2 0 0 1 3-.7 50.5 50.5 0 0 0 3.2-.7c5.2-10.3 8-15.2 15.7-23.2 3.5-3.5 5.8-5 9.4-8.8l1-1.2c.4-.4.6-.8.5-1.1a53.3 53.3 0 0 0-.3-2.4 10.6 10.6 0 0 0-.7-2.4 6.6 6.6 0 0 0-1.5-2A5.3 5.3 0 0 0 767 95c-4.4-1.1-8.7.4-14 3.5zm-486.1 16c9.4 5.3 14.2 8 23.8 13.2 1.4-11.4-1.8-19.3-7.8-22.6a6 6 0 0 0-.8-.4 8.9 8.9 0 0 1-.8-.3c-8-3-12.6.7-14.4 10.1zM184 69.7c-2 1.1-3.5 2.8-4.6 5-1.8 3.5-3.6 7-5.1 10.7a37 37 0 0 0-2.4 12.1c-.2 3.6.2 7.4 1.7 11.2 1.6 3.7 3.5 7.4 5.8 11a8.7 8.7 0 0 0 2.8 3 7.3 7.3 0 0 0 3.4 1 4.9 4.9 0 0 0 2.3-.4c2-.7 3.8-1.7 5.4-3a18.5 18.5 0 0 0 4-4.5c1.1-1.7 2-3.6 2.6-5.8.6-2.1 1-4.5 1.1-6.8l.5-3 .5-3 .6-5.8c.2-1.8.2-3.7.2-5.6a26.3 26.3 0 0 0-.8-5.7 23 23 0 0 0-2.3-5.4 13.3 13.3 0 0 0-4.3-4.5 12.2 12.2 0 0 0-5.3-1.9c-2.1-.1-4.2.4-6.1 1.4z" fill="#FCF77B"/>
</svg>
